<?xml version="1.0" encoding="UTF-8" standalone="no"?>
<svg xmlns="http://www.w3.org/2000/svg" xmlns:xlink="http://www.w3.org/1999/xlink" width="116" height="127" viewBox="-.358 -.104 116 127">
  <linearGradient id="c" x1="57.584" x2="57.584" y1="154.013" y2="-101.487" gradientUnits="userSpaceOnUse">
    <stop offset="0" stop-color="#fff"/>
    <stop offset=".246" stop-color="#f6f6f6"/>
    <stop offset=".637" stop-color="#dfdfdf"/>
    <stop offset="1" stop-color="#c4c4c4"/>
  </linearGradient>
  <linearGradient id="a">
    <stop offset="0" stop-color="#b2b2b2"/>
    <stop offset="1" stop-color="#828282"/>
  </linearGradient>
  <linearGradient id="d" x1="-32.669" x2="49.83" y1="-26.884" y2="55.614" gradientUnits="userSpaceOnUse" xlink:href="#a"/>
  <linearGradient id="e" x1="36.688" x2="197.672" y1="24.87" y2="110.514" gradientUnits="userSpaceOnUse">
    <stop offset="0" stop-color="#fff"/>
    <stop offset=".86" stop-color="#dadada"/>
    <stop offset="1" stop-color="#d4d4d4"/>
  </linearGradient>
  <linearGradient id="b">
    <stop offset="0" stop-color="#b3b8ff"/>
    <stop offset="1" stop-color="#3a3aa9"/>
  </linearGradient>
  <linearGradient id="f" x1="-10.063" x2="121.257" y1="10.1" y2="10.1" gradientUnits="userSpaceOnUse" xlink:href="#b"/>
  <radialGradient id="g" cx="102.131" cy="117.697" r="34.736" gradientUnits="userSpaceOnUse">
    <stop offset="0"/>
    <stop offset="1"/>
  </radialGradient>
  <linearGradient id="h" x1="97.681" x2="88.752" y1="97.629" y2="135.242" gradientUnits="userSpaceOnUse">
    <stop offset="0" stop-color="#fff"/>
    <stop offset="1" stop-color="#ccc"/>
  </linearGradient>
  <linearGradient id="i" x1="75.973" x2="89.768" y1="87.541" y2="101.337" gradientUnits="userSpaceOnUse" xlink:href="#a"/>
  <linearGradient id="j" x1="56.01" x2="56.01" y1="28.017" y2="91.706" gradientUnits="userSpaceOnUse" xlink:href="#b"/>
  <linearGradient id="k" x1="87.01" x2="59.535" y1="158.602" y2="72.576" gradientUnits="userSpaceOnUse">
    <stop offset=".592" stop-color="#fff"/>
    <stop offset="1" stop-color="#fff" stop-opacity="0"/>
  </linearGradient>
  <linearGradient id="l" x1="54.763" x2="54.763" y1="26.477" y2="76.716" gradientUnits="userSpaceOnUse">
    <stop offset="0" stop-color="#fff"/>
    <stop offset=".713" stop-color="#fff" stop-opacity="0"/>
  </linearGradient>
  <path fill="#fff" d="m114.828.5h-114.328v125.896h80.701l33.627-33.627z"/>
  <path fill="url(#c)" d="m111.398 3.467h-107.468l-.16 122.654h76.457l31.172-31.252v-91.402z"/>
  <path fill="url(#d)" d="m114.828 0h-114.828v126.896h81.408l33.92-33.92v-92.976zm-.5 1v91.563c-.289.289-33.045 33.045-33.334 33.334-.41 0-79.01 0-79.994 0 0-.989 0-123.909 0-124.897z"/>
  <path fill="url(#e)" d="m111.67 14.671v-11.283h-107.807l-.096 65.34c9.975 4.547 21.151 7.096 32.954 7.096 37.345 0 68.398-27.499 74.949-61.153z"/>
  <path fill="url(#f)" d="m111.356 16.471h-107.384v-12.743h107.385v12.743z"/>
  <path fill="url(#g)" d="m78.855 90.424v35.754h1.793l33.639-33.639v-2.115z" opacity=".1"/>
  <path fill="#fff" d="m81.201 126.396 33.627-33.627h-33.627z"/>
  <path fill="url(#h)" d="m83.529 124.504 29.594-29.592h-29.594z"/>
  <path fill="url(#i)" d="m81.201 92.27c-.277 0-.5.223-.5.5v33.627c0 .203.121.385.309.463.186.076.402.033.545-.109l33.627-33.627c.143-.145.186-.359.109-.545-.078-.188-.26-.309-.463-.309zm32.42 1c-1.58 1.578-30.342 30.34-31.92 31.92 0-2.209 0-30.986 0-31.92z"/>
  <g fill="#fff">
    <path d="m6.516 13.896v-8.593h2.783c1.054 0 1.741.043 2.062.129.492.129.904.41 1.236.842.332.433.498.991.498 1.676 0 .528-.096.973-.287 1.333s-.434.643-.729.848-.595.341-.899.408c-.414.083-1.013.124-1.798.124h-1.132v3.234h-1.734zm1.734-7.14v2.453h.951c.684 0 1.142-.045 1.373-.135.231-.091.412-.232.542-.425s.197-.417.197-.672c0-.314-.092-.574-.276-.778s-.417-.332-.698-.383c-.207-.039-.624-.059-1.25-.059h-.839z"/>
    <path d="m14.52 13.896v-8.593h1.734v3.375h3.406v-3.375h1.734v8.594h-1.734v-3.766h-3.406v3.766h-1.734z"/>
    <path d="m23.186 13.896v-8.593h2.783c1.054 0 1.741.043 2.062.129.492.129.904.41 1.236.842.332.433.498.991.498 1.676 0 .528-.096.973-.287 1.333s-.434.643-.729.848-.595.341-.899.408c-.414.083-1.013.124-1.798.124h-1.13v3.234h-1.736zm1.734-7.14v2.453h.951c.684 0 1.142-.045 1.373-.135.231-.091.412-.232.542-.425s.197-.417.197-.672c0-.314-.092-.574-.276-.778s-.417-.332-.698-.383c-.207-.039-.624-.059-1.25-.059h-.839z"/>
  </g>
  <path d="m101.929 65.434c0 13.678-20.558 24.766-45.917 24.766s-45.92-11.089-45.92-24.766c0-13.679 20.56-24.767 45.919-24.767s45.918 11.088 45.918 24.767z" opacity=".15"/>
  <path fill="url(#j)" d="m101.929 61.927c0 13.68-20.558 24.767-45.917 24.767s-45.92-11.088-45.92-24.767c0-13.678 20.56-24.766 45.919-24.766s45.918 11.088 45.918 24.766z"/>
  <path d="m66.371 50.511c-1.119-1.35-2.854-2.12-4.757-2.12-1.325 0-2.637.387-3.832 1.044.525-3.194 1.438-8.738 1.438-8.738h-6.002l-4.658 28.358h6.002l1.918-11.684.277-1c.628-1.231 1.885-2.412 3.35-2.412.941 0 1.217.335 1.307.443.417.502.526 1.589.295 2.987l-1.917 11.671h6.005l1.892-11.539c.496-3.006.051-5.367-1.318-7.01z"/>
  <path fill="#fff" d="m53.218 40.188h-.423l-4.825 29.376h7.016l1.988-12.109.265-.945c.506-.968 1.615-2.042 2.869-2.042.322 0 .745.045.925.262.246.296.423 1.127.184 2.575l-2.015 12.263h7.019l1.961-11.964c.136-.824.204-1.603.204-2.335 0-2.078-.546-3.783-1.633-5.087-1.213-1.461-3.086-2.3-5.139-2.3-1.055 0-2.137.299-3.192.749.236-1.435 1.389-8.442 1.389-8.442h-.591-6.002zm5.411 1.018c-.169 1.03-1.509 9.171-1.509 9.171l.9-.495c1.169-.644 2.412-.983 3.594-.983 1.758 0 3.353.707 4.375 1.939v.001c.93 1.115 1.396 2.601 1.396 4.434 0 .675-.063 1.396-.189 2.163 0 0-1.692 10.325-1.822 11.114-.654 0-4.105 0-4.991 0 .176-1.068 1.821-11.077 1.821-11.077.084-.508.126-.979.126-1.403 0-.884-.181-1.573-.532-1.996-.13-.156-.52-.624-1.689-.624-1.789 0-3.162 1.447-3.794 2.687l-.315 1.096s-1.73 10.523-1.86 11.313c-.654 0-4.103 0-4.988 0 .184-1.119 4.358-26.534 4.491-27.341.653.001 4.102.001 4.986.001z"/>
  <path d="m89.672 51.47c-1.362-1.638-3.988-2.748-6.394-2.748l-5.34.065h-4.065l-.96 6.889-3.365 20.467h6.009s.816-4.981 1.271-7.755c1.062.67 2.351 1.064 3.824 1.068 4.272 0 9.406-3.299 10.594-10.539.631-3.834-.506-6.168-1.574-7.447zm-8.612 10.456h-.931l-2.334-.051 1.415-7.153h1.85c.166 0 .33.01.489.027 1.993.216 3.538 1.732 3.538 3.573 0 1.991-1.803 3.604-4.027 3.604z"/>
  <path fill="#fff" d="m77.933 48.279h-4.494l-1.021 7.327-3.461 21.047h7.023s1.06-6.467 1.236-7.542c1.043.523 2.177.853 3.435.855 4.475 0 9.853-3.431 11.088-10.963.131-.795.188-1.528.188-2.205 0-2.759-.963-4.565-1.874-5.657-1.457-1.751-4.18-2.928-6.775-2.928zm.005 1.018 5.346-.065c2.276 0 4.749 1.056 6.006 2.567l.001.001c.998 1.195 2.063 3.386 1.462 7.036-1.14 6.949-6.035 10.114-10.101 10.114-1.325-.004-2.523-.337-3.561-.991l-.634-.4s-1.2 7.319-1.325 8.078c-.654 0-4.109 0-4.994 0 .184-1.117 3.268-19.875 3.268-19.875s.794-5.697.901-6.464c.693-.001 3.631-.001 3.631-.001zm12.116 1.845c-.001-.001-.001 0 0 0z"/>
  <path fill="#fff" d="m79.21 54.213h-.409l-1.614 8.158 2.932.063h.941c2.496 0 4.527-1.846 4.527-4.112 0-2.08-1.713-3.833-3.985-4.079l-.542-.031h-1.85zm1.85 1.017.436.025c1.763.191 3.092 1.509 3.092 3.067 0 1.707-1.582 3.095-3.527 3.095h-.931s-1.066-.023-1.726-.038c.186-.939 1.085-5.487 1.216-6.149z"/>
  <path d="m44.152 51.47c-1.361-1.638-3.987-2.748-6.392-2.748l-5.34.065h-4.066l-.959 6.889-3.365 20.467h6.007s.819-4.981 1.274-7.755c1.062.67 2.349 1.064 3.825 1.068 4.272 0 9.406-3.299 10.593-10.539.629-3.834-.508-6.168-1.577-7.447zm-8.611 10.456h-.93l-2.334-.051 1.415-7.153h1.849c.167 0 .33.01.49.027 1.99.216 3.536 1.732 3.536 3.573 0 1.991-1.802 3.604-4.026 3.604z"/>
  <path fill="#fff" d="m32.414 48.279h-4.495l-1.021 7.327-3.461 21.047h7.021s1.063-6.467 1.239-7.542c1.044.523 2.178.853 3.435.855 4.475 0 9.853-3.431 11.088-10.963.131-.794.188-1.528.188-2.205 0-2.759-.963-4.565-1.875-5.657-1.433-1.724-4.218-2.928-6.773-2.928zm.005 1.018 5.346-.065c2.277 0 4.749 1.056 6.004 2.567l.001.001c.999 1.195 2.063 3.386 1.463 7.036-1.14 6.949-6.035 10.114-10.1 10.114-1.325-.004-2.523-.337-3.562-.991l-.633-.399s-1.203 7.318-1.327 8.077c-.654 0-4.108 0-4.993 0 .184-1.117 3.268-19.875 3.268-19.875s.793-5.697.9-6.464c.694-.001 3.633-.001 3.633-.001z"/>
  <path fill="#fff" d="m33.691 54.213h-.409l-1.614 8.158 2.931.063h.941c2.496 0 4.526-1.846 4.526-4.112 0-2.079-1.712-3.833-3.983-4.079l-.543-.031h-1.849zm1.85 1.017.437.025c1.761.191 3.089 1.509 3.089 3.067 0 1.707-1.582 3.095-3.526 3.095h-.93s-1.066-.023-1.726-.038c.186-.939 1.085-5.487 1.216-6.149z"/>
  <path fill="url(#k)" d="m51.333 79.579c-14.328 0-26.967-3.889-34.502-9.813 6.105 8.377 21.223 14.311 38.921 14.311 23.096 0 41.82-10.099 41.82-22.554 0-4.731-2.703-9.118-7.315-12.744 1.862 2.555 2.896 5.334 2.896 8.247 0 12.455-18.723 22.553-41.82 22.553z"/>
  <path fill="url(#l)" d="m94.113 53.164c-3.695-8.069-19.729-14.142-38.948-14.142-21.954 0-39.751 7.923-39.751 17.695 0 8.787 14.394 16.074 33.258 17.456 18.314-1.653 34.444-9.494 45.441-21.009z"/>
</svg>
